#!OML:ASF X:\für Bonn\!DataBase\2005_08_11_Bastian_Final\c3d\Bastian.ASF
:FULLY-SPECIFIED
:DEGREES
76
root 1.91134 18.1258 -3.46101 541.18 -184.752 -181.421
lowerback 13.1284 -2.41914 3.75875
upperback 5.07818 -2.71364 0.0943021
thorax -2.18138 -1.3134 -1.61537
lowerneck -10.8376 -3.49728 0.52566
upperneck -10.1322 -4.34895 7.42371
head -1.21658 -2.25106 2.16642
rclavicle -1.18153e-014 -4.47266e-015
rhumerus -41.5316 0.762843 -87.8442
rradius 32.649
rwrist 0.644456
rhand -25.806 17.7795
rfingers 7.12502
rthumb 0.733081 -12.199
lclavicle -1.18153e-014 -4.47266e-015
lhumerus -46.4859 32.3926 55.5237
lradius 22.8513
lwrist -172.254
lhand -19.0008 -0.516612
lfingers 7.12502
lthumb 7.30437 29.3373
rfemur -31.6233 -3.84185 17.6828
rtibia 50.7413
rfoot -0.78514 5.94394
rtoes -26.7583
lfemur -24.1029 6.42465 -18.238
ltibia 41.6939
lfoot 4.00352 -10.5424
ltoes -30.8948
77
root 1.89646 17.7741 -3.25597 540.809 -184.777 -181.48
lowerback 13.5188 -2.42713 3.80399
upperback 5.33518 -2.70537 0.059486
thorax -2.12474 -1.30377 -1.67001
lowerneck -11.3094 -3.48955 0.441662
upperneck -10.4734 -4.31142 7.62197
head -1.24562 -2.23091 2.24565
rclavicle -7.87684e-015 4.82053e-015
rhumerus -40.4201 0.0882668 -87.6672
rradius 30.4731
rwrist 0.984054
rhand -25.6751 17.3145
rfingers 7.12502
rthumb 0.859529 -12.6635
lclavicle -7.87684e-015 4.82053e-015
lhumerus -46.3547 34.9157 53.983
lradius 22.2042
lwrist -175.505
lhand -19.4478 0.161826
lfingers 7.12502
lthumb 6.87286 30.0303
rfemur -31.9127 -3.98537 17.9581
rtibia 52.3518
rfoot -2.81433 6.04258
rtoes -25.517
lfemur -23.99 6.18852 -18.0291
ltibia 43.9818
lfoot -0.227217 -11.3122
ltoes -25.764
78
root 1.88314 17.4245 -3.06407 540.583 -184.857 -181.466
lowerback 13.9619 -2.46515 3.76749
upperback 5.52536 -2.74218 0.0438683
thorax -2.16388 -1.3196 -1.64819
lowerneck -11.8907 -3.47249 0.300169
upperneck -10.8414 -4.25506 7.82184
head -1.26573 -2.19768 2.3353
rclavicle -2.47735e-014 -7.35503e-015
rhumerus -39.366 -0.31482 -87.554
rradius 28.7697
rwrist 1.1702
rhand -25.3713 16.5609
rfingers 7.12502
rthumb 1.15301 -13.4158
lclavicle -2.47735e-014 -7.35503e-015
lhumerus -45.9978 37.0125 53.1318
lradius 21.9268
lwrist -177.999
lhand -19.9675 0.732867
lfingers 7.12502
lthumb 6.37116 30.617
rfemur -32.3803 -4.32933 18.2515
rtibia 54.3009
rfoot -5.16632 5.86077
rtoes -23.5175
lfemur -24.2574 5.86032 -17.9324
ltibia 46.7279
lfoot -4.61378 -12.0541
ltoes -19.2394
79
root 1.86885 17.0845 -2.87755 540.463 -184.947 -181.383
lowerback 14.4782 -2.4933 3.69751
upperback 5.60429 -2.76692 -0.0209275
thorax -2.35863 -1.33299 -1.65535
lowerneck -12.4272 -3.46856 0.301039
upperneck -11.2617 -4.23035 7.92454
head -1.31536 -2.18697 2.36941
rclavicle -3.11098e-014 -5.86415e-015
rhumerus -38.4543 -0.66529 -87.5679
rradius 27.4382
rwrist 1.12904
rhand -24.9435 15.804
rfingers 7.12502
rthumb 1.56609 -14.17
lclavicle -3.11098e-014 -5.86415e-015
lhumerus -44.8769 37.6598 53.7679
lradius 21.8919
lwrist -178.683
lhand -20.3154 1.27183
lfingers 7.12502
lthumb 6.03534 31.1659
rfemur -32.972 -4.76008 18.554
rtibia 56.579
rfoot -7.96334 5.32545
rtoes -19.7593
lfemur -24.855 5.56806 -17.9362
ltibia 49.8874
lfoot -8.72739 -12.8059
ltoes -11.4202
80
root 1.85305 16.7566 -2.69315 540.484 -185.055 -181.134
lowerback 14.9436 -2.5084 3.44415
upperback 5.63451 -2.8037 -0.114246
thorax -2.57117 -1.35446 -1.58782
lowerneck -12.9219 -3.44782 0.285908
upperneck -11.8572 -4.16804 8.03783
head -1.43135 -2.16269 2.41655
rclavicle 7.85199e-015 -1.40143e-014
rhumerus -37.5058 -0.901849 -87.6656
rradius 26.4298
rwrist 0.802437
rhand -24.4837 15.1443
rfingers 7.12502
rthumb 2.0102 -14.826
lclavicle 7.85199e-015 -1.40143e-014
lhumerus -43.0132 37.2618 55.6118
lradius 21.9908
lwrist -177.9
lhand -20.5343 1.8323
lfingers 7.12502
lthumb 5.82403 31.7323
rfemur -33.6672 -5.25809 18.7185
rtibia 59.116
rfoot -11.2699 4.52608
rtoes -15.5311
lfemur -25.7433 5.2489 -18.1267
ltibia 53.3967
lfoot -12.5712 -13.4924
ltoes -3.34309
81
root 1.83673 16.4402 -2.50462 540.633 -185.152 -180.691
lowerback 15.2776 -2.49593 2.99196
upperback 5.61642 -2.84243 -0.253016
thorax -2.75776 -1.378 -1.45917
lowerneck -13.2719 -3.42831 0.294108
upperneck -12.6475 -4.09635 8.1038
head -1.63887 -2.14294 2.45248
rclavicle 2.02015e-014 -6.65929e-015
rhumerus -36.612 -0.800083 -87.9616
rradius 25.781
rwrist 0.0812442
rhand -24.7643 14.9859
rfingers 7.12502
rthumb 1.73922 -14.9868
lclavicle 2.02015e-014 -6.65929e-015
lhumerus -40.8436 36.3447 57.96
lradius 22.3096
lwrist -176.41
lhand -20.9014 2.41071
lfingers 7.12502
lthumb 5.46951 32.3201
rfemur -34.4635 -5.77697 18.6824
rtibia 61.8704
rfoot -14.9111 3.49738
rtoes -12.7317
lfemur -26.9421 4.87574 -18.5381
ltibia 57.1703
lfoot -16.0966 -13.9979
ltoes 3.8194
82
root 1.81966 16.1523 -2.30953 541.006 -185.219 -180.63
lowerback 15.3089 -2.50676 2.90372
upperback 5.50984 -2.86723 -0.26442
thorax -2.88475 -1.39319 -1.41329
lowerneck -13.5532 -3.39735 0.193208
upperneck -13.4049 -3.99196 8.2381
head -1.8468 -2.10298 2.53356
rclavicle 2.41026e-015 -4.96962e-015
rhumerus -35.8051 -0.421397 -88.3499
rradius 25.4927
rwrist -0.806766
rhand -25.149 15.0862
rfingers 7.12502
rthumb 1.36764 -14.8892
lclavicle 2.41026e-015 -4.96962e-015
lhumerus -38.5732 35.0924 60.5092
lradius 22.8321
lwrist -174.283
lhand -21.4995 3.10117
lfingers 7.12502
lthumb 4.89203 33.0247
rfemur -35.4585 -6.13421 19.0752
rtibia 64.6891
rfoot -18.4966 2.12433
rtoes -11.3835
lfemur -28.4237 4.59658 -18.5148
ltibia 60.995
lfoot -19.3086 -14.5638
ltoes 9.32296
83
root 1.8016 15.8855 -2.10988 541.669 -185.252 -181.382
lowerback 14.9492 -2.56386 3.63109
upperback 5.30995 -2.84185 -0.0603318
thorax -2.92376 -1.38097 -1.62167
lowerneck -13.8038 -3.36074 0.114811
upperneck -14.1188 -3.88439 8.35916
head -2.04894 -2.06154 2.60715
rclavicle -8.19987e-015 -1.02374e-014
rhumerus -35.0669 0.151911 -88.8366
rradius 25.5952
rwrist -1.80299
rhand -25.5762 15.4379
rfingers 7.12502
rthumb 0.955072 -14.5397
lclavicle -8.19987e-015 -1.02374e-014
lhumerus -36.2164 33.5699 63.1766
lradius 23.6418
lwrist -171.648
lhand -22.2609 3.83785
lfingers 7.12502
lthumb 4.15688 33.777
rfemur -36.7253 -6.24489 20.3883
rtibia 67.4503
rfoot -21.8036 0.527582
rtoes -8.75084
lfemur -30.2789 4.46457 -17.559
ltibia 64.7305
lfoot -22.1834 -15.2665
ltoes 12.7288
84
root 1.78283 15.642 -1.91464 542.215 -185.309 -181.804
lowerback 14.8463 -2.60081 4.02907
upperback 5.03231 -2.8293 0.0491177
thorax -3.17238 -1.38116 -1.72997
lowerneck -13.7315 -3.32363 -0.0169069
upperneck -14.901 -3.75427 8.51683
head -2.32905 -2.0148 2.71326
rclavicle -1.21756e-014 -8.94531e-016
rhumerus -34.7684 0.777393 -89.3427
rradius 26.2474
rwrist -2.646
rhand -25.9758 15.9368
rfingers 7.12502
rthumb 0.569129 -14.0422
lclavicle -1.21756e-014 -8.94531e-016
lhumerus -33.8939 31.3181 65.9208
lradius 24.7429
lwrist -168.419
lhand -22.9595 4.35017
lfingers 7.12502
lthumb 3.48223 34.3015
rfemur -37.6928 -6.24574 21.2158
rtibia 70.0328
rfoot -24.6094 -0.794166
rtoes -6.46006
lfemur -31.8225 4.30777 -16.936
ltibia 68.1151
lfoot -24.9467 -15.8564
ltoes 13.5573
85
root 1.76438 15.4322 -1.71985 542.644 -185.328 -181.585
lowerback 14.942 -2.58845 3.77074
upperback 4.72349 -2.84289 -0.0146915
thorax -3.54242 -1.39775 -1.63803
lowerneck -13.5389 -3.28735 -0.201373
upperneck -15.5731 -3.62051 8.70476
head -2.59358 -1.96302 2.84021
rclavicle 1.5704e-014 -3.77691e-015
rhumerus -34.7634 1.64589 -89.9468
rradius 27.4746
rwrist -3.67511
rhand -25.9638 15.9659
rfingers 7.12502
rthumb 0.580722 -14.0131
lclavicle 1.5704e-014 -3.77691e-015
lhumerus -31.8692 28.7771 68.4063
lradius 26.1827
lwrist -165.381
lhand -23.7443 4.79992
lfingers 7.12502
lthumb 2.72432 34.7623
rfemur -38.3614 -6.23103 21.2106
rtibia 72.3646
rfoot -26.8912 -1.67864
rtoes -4.45289
lfemur -32.8793 4.11547 -17.0285
ltibia 70.9859
lfoot -27.3864 -16.159
ltoes 12.9215
86
root 1.74505 15.2623 -1.52406 542.854 -185.351 -181.011
lowerback 15.1077 -2.54448 3.12802
upperback 4.56261 -2.87779 -0.182988
thorax -3.78309 -1.41895 -1.43648
lowerneck -13.2286 -3.23104 -0.288708
upperneck -16.4711 -3.46217 8.78858
head -2.96663 -1.91073 2.92666
rclavicle 2.77305e-014 -4.77083e-015
rhumerus -34.6524 2.50479 -90.5479
rradius 29.075
rwrist -4.63735
rhand -26.0897 16.0323
rfingers 7.12502
rthumb 0.45907 -13.947
lclavicle 2.77305e-014 -4.77083e-015
lhumerus -29.8206 25.8457 70.833
lradius 27.8198
lwrist -162.155
lhand -24.6346 5.63286
lfingers 7.12502
lthumb 1.86449 35.6045
rfemur -38.6189 -6.28736 20.739
rtibia 74.3655
rfoot -28.7534 -2.28249
rtoes -3.19294
lfemur -33.3262 3.91985 -17.501
ltibia 73.2274
lfoot -29.165 -16.3849
ltoes 11.7576
87
root 1.72535 15.1321 -1.32462 542.794 -185.358 -180.457
lowerback 15.4166 -2.5041 2.43028
upperback 4.46527 -2.92387 -0.306524
thorax -4.02797 -1.44265 -1.15066
lowerneck -12.852 -3.17661 -0.463188
upperneck -17.3365 -3.29879 8.87634
head -3.34517 -1.85081 3.03284
rclavicle -9.24349e-015 7.35503e-015
rhumerus -34.5513 3.51887 -91.0662
rradius 30.8737
rwrist -5.38041
rhand -26.8124 16.7076
rfingers 7.12502
rthumb -0.238883 -13.272
lclavicle -9.24349e-015 7.35503e-015
lhumerus -27.9192 22.9085 73.0815
lradius 29.7919
lwrist -159.313
lhand -25.455 6.52155
lfingers 7.12502
lthumb 1.0721 36.4986
rfemur -38.3925 -6.22741 20.2121
rtibia 75.958
rfoot -30.3167 -2.60365
rtoes -2.03629
lfemur -33.1507 3.74461 -17.9202
ltibia 74.8694
lfoot -30.476 -16.5054
ltoes 10.3272
